<?xml version="1.0" encoding="UTF-8"?>
<svg xmlns="http://www.w3.org/2000/svg" xmlns:xlink="http://www.w3.org/1999/xlink" width="256" height="256" viewBox="0 0 256 256" version="1.1">
<g id="surface1">
<path style=" stroke:none;fill-rule:nonzero;fill:rgb(100%,100%,100%);fill-opacity:1;" d="M 16.476562 112 L 16.476562 144 L 223.984375 144 L 223.984375 112 Z M 16.476562 112 "/>
<path style=" stroke:none;fill-rule:nonzero;fill:rgb(100%,100%,100%);fill-opacity:1;" d="M 188.476562 80 C 182.507812 81.085938 177.664062 85.445312 175.96875 91.273438 C 174.273438 97.101562 176.023438 103.382812 180.476562 107.5 L 200.960938 127.984375 L 180.460938 148.476562 C 176.296875 152.578125 174.648438 158.59375 176.148438 164.242188 C 177.640625 169.890625 182.054688 174.296875 187.703125 175.796875 C 193.34375 177.289062 199.367188 175.648438 203.460938 171.476562 L 235.460938 139.476562 L 246.460938 127.976562 L 235.460938 116.476562 L 203.460938 84.476562 C 199.570312 80.460938 193.875 78.765625 188.421875 80 Z M 188.476562 80 "/>
<path style=" stroke:none;fill-rule:nonzero;fill:rgb(100%,100%,100%);fill-opacity:1;" d="M 176 80 L 192 80 L 192 96 L 176 96 Z M 176 80 "/>
<path style=" stroke:none;fill-rule:nonzero;fill:rgb(100%,100%,100%);fill-opacity:1;" d="M 176 160 L 192 160 L 192 176 L 176 176 Z M 176 160 "/>
</g>
</svg>
