<?xml version="1.0" encoding="UTF-8"?>
<svg xmlns="http://www.w3.org/2000/svg" xmlns:xlink="http://www.w3.org/1999/xlink" width="256" height="256" viewBox="0 0 256 256" version="1.1">
<g id="surface1">
<path style=" stroke:none;fill-rule:nonzero;fill:rgb(100%,100%,100%);fill-opacity:1;" d="M 32.960938 0 C 14.546875 0 -0.0390625 14.585938 -0.0390625 33 L -0.0390625 223 C -0.0390625 241.414062 14.546875 256 32.960938 256 L 222.960938 256 C 241.375 256 255.960938 241.414062 255.960938 223 L 255.960938 33 C 255.960938 14.585938 241.375 0 222.960938 0 Z M 31.960938 48 L 63.960938 48 L 63.960938 112 L 79.960938 112 L 79.960938 96 L 111.960938 96 L 111.960938 208 L 79.960938 208 L 79.960938 144 L 63.960938 144 C 47.960938 144 31.960938 130.53125 31.960938 112 Z M 160.960938 48.5 L 191.460938 48.5 C 191.507812 48.5 191.414062 49 191.460938 49 C 199.898438 48.671875 208.617188 50.210938 215.460938 56.5 C 222.09375 62.59375 224.953125 72.617188 224.460938 82 L 224.960938 82 L 224.960938 96 L 192.960938 96 L 192.960938 80.5 C 192.679688 80.46875 193.007812 80.46875 192.460938 80.5 L 160.960938 80.5 C 160.523438 80.5 160.609375 80.53125 160.460938 80.5 C 160.367188 80.5625 160 80.453125 159.960938 80.5 C 159.851562 80.859375 160.078125 81.242188 159.960938 81.5 L 159.960938 175 C 159.585938 174.648438 159.960938 176 159.960938 176 L 191.46875 176 C 191.578125 175.6875 191.9375 175.742188 191.960938 176 C 191.976562 176.125 191.960938 175.109375 191.960938 175.5 L 191.960938 144.5 L 175.960938 144.5 L 175.960938 112.5 L 223.960938 112.5 L 223.960938 175.5 C 223.960938 184.5 220.328125 191.492188 214.960938 197.5 C 209.90625 203.15625 201.335938 207.609375 191.460938 207.5 L 191.460938 208 L 159.960938 208 C 149.96875 208 144.0625 204.140625 138.460938 199 C 133.164062 194.132812 128.164062 186.359375 128.460938 176 C 128.46875 175.96875 127.960938 176.03125 127.960938 176 L 127.960938 79 C 128.960938 72.007812 131.25 64.773438 136.960938 58.5 C 142.679688 52.226562 152.101562 48.5 160.960938 48.5 Z M 160.960938 48.5 "/>
</g>
</svg>
